<svg width="375" height="356" viewBox="0 0 375 356" fill="none" xmlns="http://www.w3.org/2000/svg">
<path d="M258.428 12.0438L364.914 146.333C370.186 152.982 369.06 162.662 362.37 167.967L137.679 346.136C131.003 351.43 121.318 350.344 116.036 343.682L9.55021 209.393C4.27824 202.744 5.4176 193.053 12.0936 187.759L236.771 9.60016C243.461 4.29592 253.156 5.39533 258.428 12.0438Z" fill="url(#paint0_linear_2006_9701)"/>
<path d="M186.796 209.393L99.2422 278.818L106.814 288.368L194.368 218.942L186.796 209.393Z" fill="#FDFEFF"/>
<path d="M156.624 262.936L113.662 297.002L121.234 306.552L164.196 272.485L156.624 262.936Z" fill="#FDFEFF"/>
<path d="M182.113 242.723L162.614 258.185L170.186 267.734L189.685 252.272L182.113 242.723Z" fill="#FDFEFF"/>
<path d="M109.04 212.161L75.0527 239.112C72.5739 241.078 72.1603 244.667 74.1269 247.148L86.8417 263.182C88.8083 265.662 92.398 266.078 94.8768 264.112L128.864 237.162C131.343 235.196 131.757 231.606 129.79 229.126L117.086 213.105C115.132 210.614 111.519 210.196 109.04 212.161Z" fill="#FDFEFF"/>
<path d="M251.483 60.5968C248.506 53.6655 240.475 50.4573 233.547 53.431C226.618 56.4047 223.414 64.4343 226.391 71.3656C229.368 78.2969 237.398 81.5051 244.327 78.5314C251.256 75.5577 254.46 67.5281 251.483 60.5968Z" fill="#FDFEFF"/>
<path d="M237.526 72.0903C234.316 65.2636 226.182 62.3288 219.358 65.5353C212.534 68.7418 209.604 76.8753 212.813 83.702C216.023 90.5287 224.157 93.4634 230.981 90.2569C237.805 87.0505 240.736 78.917 237.526 72.0903Z" fill="#FDFEFF"/>
<defs>
<linearGradient id="paint0_linear_2006_9701" x1="124.439" y1="98.6745" x2="250.025" y2="257.052" gradientUnits="userSpaceOnUse">
<stop stop-color="#469FEF"/>
<stop offset="0.258455" stop-color="#5C75F0"/>
<stop offset="0.652018" stop-color="#6C56F0"/>
</linearGradient>
</defs>
</svg>
