<svg width="141" height="140" viewBox="0 0 141 140" fill="none" xmlns="http://www.w3.org/2000/svg">
<rect x="37.4148" y="34.9778" width="67.1706" height="67.1706" rx="33.5853" fill="url(#paint0_linear_1_2720)"/>
<path d="M56.2561 68.8502L65.9507 78.5449L85.744 58.7516" stroke="white" stroke-width="5" stroke-linecap="round" stroke-linejoin="round"/>
<path d="M105.097 107.24C106.928 107.441 110.829 109.53 112.368 111.839C113.907 114.148 114.782 118.144 114.91 119.94" stroke="#3862F8" stroke-width="2" stroke-linecap="round" stroke-linejoin="round"/>
<path d="M31.9789 84.343C29.8623 86.7802 24.3208 91.1543 19.0871 89.1532C12.5449 86.6519 12.7373 82.8036 14.8539 81.2643C16.9705 79.725 19.8567 82.2264 20.4339 84.343C21.0112 86.4595 20.0491 93.5789 14.8539 96.2727C9.65869 98.9665 2.73174 97.6196 1 96.2727" stroke="#3862F8" stroke-width="2" stroke-linecap="round" stroke-linejoin="round"/>
<path d="M115.391 16.228C112.89 15.9073 107.656 17.3824 106.732 25.8487C105.809 34.315 98.3945 36.0468 94.8027 35.8544" stroke="#3862F8" stroke-width="2" stroke-linecap="round" stroke-linejoin="round"/>
<circle cx="21.1074" cy="51.1085" r="4.61793" fill="#3862F8"/>
<circle cx="49.032" cy="14.8808" r="3.84817" fill="#3862F8"/>
<circle cx="60.7696" cy="22.1799" r="2.29619" fill="#3862F8"/>
<circle cx="122.125" cy="65.7589" r="4.13688" fill="#3862F8"/>
<circle cx="36.1156" cy="112.708" r="4.13688" fill="#3862F8"/>
<circle cx="87.6833" cy="124.83" r="4.13688" fill="#3862F8"/>
<circle cx="74.8873" cy="120.693" r="2.29623" fill="#3862F8"/>
<defs>
<linearGradient id="paint0_linear_1_2720" x1="71.0001" y1="34.9778" x2="71.0001" y2="102.148" gradientUnits="userSpaceOnUse">
<stop stop-color="#469FEF"/>
<stop offset="0.258455" stop-color="#5C75F0"/>
<stop offset="0.652018" stop-color="#6C56F0"/>
</linearGradient>
</defs>
</svg>
